<svg version="1.1" preserveAspectRatio="none" xmlns="http://www.w3.org/2000/svg" width="500" height="500" viewBox="0 0 500 500"><rect width="100%" height="100%" fill="#121212" fill-opacity="1"/><svg viewBox="8.0348 73.8342 372.9478 209.404" width="417" height="234.13857917917736" x="41.5px" y="132.9307px" xmlns="http://www.w3.org/2000/svg" xmlns:xlink="http://www.w3.org/1999/xlink" preserveAspectRatio="none"><defs></defs><style>.companyName {fill:#E3E3E3;fill-opacity:1;}.icon1 {fill:#F1EC40;fill-opacity:1;}.icon2 {fill:#555555;fill-opacity:1;}.icon3 {fill:#AAAAAA;fill-opacity:1;}.icon3-str {stroke:#AAAAAA;stroke-opacity:1;}</style><g opacity="1" transform="rotate(0 8.0348 255.2382)">
<svg width="372.9478" height="28" x="8.0348" y="255.2382" version="1.1" preserveAspectRatio="none" viewBox="2.5781 -28.3984 383.45709999999997 28.7891">
  <g transform="matrix(1 0 0 1 0 0)" class="companyName"><path id="id-D6z1nYkh13" d="M30.59-14.00L30.59-2.56Q30.59-2.01 30.39-1.54Q30.20-1.07 29.85-0.73Q29.51-0.39 29.04-0.20Q28.57 0 28.03 0L28.03 0L9.71 0Q9.00 0 8.19-0.17Q7.38-0.33 6.59-0.68Q5.80-1.04 5.08-1.59Q4.36-2.15 3.80-2.94Q3.24-3.73 2.91-4.78Q2.58-5.82 2.58-7.13L2.58-7.13L2.58-20.88Q2.58-21.58 2.74-22.39Q2.91-23.20 3.26-23.99Q3.61-24.79 4.18-25.51Q4.75-26.23 5.54-26.79Q6.33-27.34 7.36-27.68Q8.40-28.01 9.71-28.01L9.71-28.01L30.35-28.01L30.35-22.93L9.71-22.93Q8.71-22.93 8.18-22.40Q7.66-21.88 7.66-20.84L7.66-20.84L7.66-7.13Q7.66-6.15 8.19-5.62Q8.73-5.08 9.71-5.08L9.71-5.08L25.51-5.08L25.51-11.45L11.99-11.45L11.99-16.56L28.03-16.56Q28.57-16.56 29.04-16.36Q29.51-16.15 29.85-15.80Q30.20-15.45 30.39-14.99Q30.59-14.53 30.59-14.00L30.59-14.00Z M63.87-21.84L63.87-18.59Q63.87-16.86 63.44-15.49Q63.01-14.12 62.28-13.08Q61.54-12.03 60.59-11.29Q59.63-10.55 58.58-10.07Q57.54-9.59 56.47-9.38Q55.41-9.16 54.47-9.16L54.47-9.16L65.08 0L57.23 0L46.64-9.16L42.99-9.16L42.99-14.24L54.47-14.24Q55.43-14.32 56.22-14.64Q57.01-14.96 57.59-15.51Q58.16-16.05 58.48-16.83Q58.79-17.60 58.79-18.59L58.79-18.59L58.79-21.80Q58.79-22.23 58.68-22.45Q58.57-22.68 58.41-22.78Q58.24-22.89 58.06-22.91Q57.87-22.93 57.71-22.93L57.71-22.93L40.96-22.93L40.96 0L35.88 0L35.88-25.45Q35.88-25.98 36.07-26.45Q36.27-26.91 36.61-27.27Q36.95-27.62 37.42-27.81Q37.89-28.01 38.44-28.01L38.44-28.01L57.71-28.01Q59.41-28.01 60.59-27.39Q61.76-26.78 62.49-25.85Q63.22-24.92 63.54-23.85Q63.87-22.77 63.87-21.84L63.87-21.84Z M98.36-16.68L98.36-11.33Q98.36-8.77 97.48-6.62Q96.60-4.47 95.04-2.91Q93.48-1.35 91.34-0.48Q89.20 0.39 86.68 0.39L86.68 0.39L79.80 0.39Q77.29 0.39 75.14-0.48Q72.99-1.35 71.43-2.91Q69.86-4.47 68.97-6.62Q68.09-8.77 68.09-11.33L68.09-11.33L68.09-16.68Q68.09-19.22 68.97-21.38Q69.86-23.54 71.43-25.09Q72.99-26.64 75.14-27.52Q77.29-28.40 79.80-28.40L79.80-28.40L86.68-28.40Q89.20-28.40 91.34-27.52Q93.48-26.64 95.04-25.09Q96.60-23.54 97.48-21.38Q98.36-19.22 98.36-16.68L98.36-16.68ZM93.28-11.33L93.28-16.68Q93.28-18.18 92.80-19.40Q92.32-20.63 91.46-21.49Q90.59-22.36 89.37-22.84Q88.14-23.32 86.68-23.32L86.68-23.32L79.80-23.32Q78.32-23.32 77.10-22.84Q75.88-22.36 75-21.49Q74.12-20.63 73.64-19.40Q73.16-18.18 73.16-16.68L73.16-16.68L73.16-11.33Q73.16-9.82 73.64-8.60Q74.12-7.38 75-6.51Q75.88-5.64 77.10-5.17Q78.32-4.69 79.80-4.69L79.80-4.69L86.64-4.69Q88.13-4.69 89.35-5.17Q90.57-5.64 91.45-6.51Q92.32-7.38 92.80-8.60Q93.28-9.82 93.28-11.33L93.28-11.33Z M133.75-28.01L138.91-28.01L134.22-1.76Q134.06-0.98 133.52-0.41Q132.97 0.16 132.19 0.31L132.19 0.31Q131.39 0.45 130.67 0.14Q129.96-0.18 129.55-0.84L129.55-0.84L120.25-16.11L110.94-0.84Q110.61-0.27 110.03 0.04Q109.45 0.35 108.79 0.35L108.79 0.35Q107.87 0.35 107.17-0.23Q106.46-0.82 106.31-1.76L106.31-1.76L101.58-28.01L106.74-28.01L110.10-9.51L118.11-22.29Q118.44-22.85 119.01-23.16Q119.59-23.48 120.25-23.48L120.25-23.48Q120.92-23.48 121.48-23.16Q122.05-22.85 122.42-22.29L122.42-22.29L130.39-9.51L133.75-28.01Z M184.20-7.13L184.20-6.15Q184.20-5.21 183.88-4.14Q183.55-3.07 182.82-2.15Q182.09-1.23 180.92-0.62Q179.75 0 178.05 0L178.05 0L158.77 0Q158.22 0 157.75-0.20Q157.29-0.39 156.94-0.73Q156.60-1.07 156.41-1.54Q156.21-2.01 156.21-2.56L156.21-2.56L156.21-25.45Q156.21-25.98 156.41-26.45Q156.60-26.91 156.94-27.27Q157.29-27.62 157.75-27.81Q158.22-28.01 158.77-28.01L158.77-28.01L175.76-28.01Q176.70-28.01 177.77-27.68Q178.85-27.34 179.78-26.61Q180.70-25.88 181.32-24.71Q181.93-23.54 181.93-21.84L181.93-21.84L181.93-20.88Q181.93-19.53 181.48-17.98Q181.04-16.43 180.04-15.04L180.04-15.04Q180.90-14.51 181.65-13.77Q182.40-13.03 182.97-12.05Q183.54-11.07 183.87-9.84Q184.20-8.61 184.20-7.13L184.20-7.13ZM179.12-6.19L179.12-7.13Q179.12-8.13 178.81-8.92Q178.50-9.71 177.93-10.27Q177.36-10.84 176.56-11.14Q175.76-11.45 174.77-11.45L174.77-11.45L163.32-11.45L163.32-16.56L172.48-16.56Q173.48-16.56 174.28-16.87Q175.08-17.17 175.64-17.73Q176.21-18.30 176.51-19.09Q176.82-19.88 176.82-20.88L176.82-20.88L176.82-21.84Q176.82-22.93 175.76-22.93L175.76-22.93L161.29-22.93L161.29-5.08L178.05-5.08Q178.18-5.08 178.38-5.10Q178.57-5.12 178.73-5.21Q178.89-5.31 179.00-5.55Q179.12-5.78 179.12-6.19L179.12-6.19Z M215.90-28.01L215.90-2.56Q215.90-2.01 215.70-1.54Q215.51-1.07 215.16-0.73Q214.80-0.39 214.34-0.20Q213.87 0 213.34 0L213.34 0L201.89 0Q200.27 0 198.61-0.35Q196.95-0.70 195.40-1.44Q193.85-2.17 192.48-3.30Q191.11-4.43 190.09-5.99Q189.06-7.54 188.48-9.54Q187.89-11.54 187.89-14.00L187.89-14.00L187.89-28.01L192.97-28.01L192.97-14.00Q192.97-11.86 193.56-10.37Q194.16-8.89 195.08-7.89Q196.00-6.89 197.09-6.33Q198.18-5.76 199.17-5.49Q200.16-5.21 200.91-5.15Q201.66-5.08 201.89-5.08L201.89-5.08L210.82-5.08L210.82-28.01L215.90-28.01Z M248.71-8.24L248.71-8.24Q248.71-6.74 248.33-5.54Q247.95-4.34 247.32-3.42Q246.70-2.50 245.86-1.86Q245.02-1.21 244.12-0.80Q243.22-0.39 242.29-0.20Q241.37 0 240.55 0L240.55 0L220.96 0L220.96-5.08L240.55-5.08Q242.01-5.08 242.82-5.94Q243.63-6.80 243.63-8.24L243.63-8.24Q243.63-8.95 243.42-9.53Q243.20-10.12 242.80-10.55Q242.40-10.98 241.83-11.21Q241.25-11.45 240.55-11.45L240.55-11.45L228.87-11.45Q227.64-11.45 226.21-11.88Q224.79-12.32 223.56-13.30Q222.34-14.28 221.53-15.86Q220.72-17.44 220.72-19.73L220.72-19.73Q220.72-22.01 221.53-23.58Q222.34-25.16 223.56-26.14Q224.79-27.13 226.21-27.57Q227.64-28.01 228.87-28.01L228.87-28.01L246.15-28.01L246.15-22.93L228.87-22.93Q227.42-22.93 226.61-22.05Q225.80-21.17 225.80-19.73L225.80-19.73Q225.80-18.26 226.61-17.41Q227.42-16.56 228.87-16.56L228.87-16.56L240.55-16.56L240.59-16.56Q241.41-16.54 242.32-16.34Q243.24-16.13 244.15-15.70Q245.06-15.27 245.88-14.62Q246.70-13.96 247.33-13.05Q247.97-12.13 248.34-10.94Q248.71-9.75 248.71-8.24Z M258.05-28.01L258.05 0L252.97 0L252.97-28.01L258.05-28.01Z M291.97-28.01L291.97-2.17Q291.97-1.62 291.77-1.15Q291.56-0.68 291.22-0.34Q290.88 0 290.41 0.20Q289.94 0.39 289.41 0.39L289.41 0.39Q288.95 0.39 288.47 0.21Q287.99 0.04 287.62-0.35L287.62-0.35L269.06-19.73L269.06 0L263.98 0L263.98-25.84Q263.98-26.62 264.42-27.26Q264.86-27.89 265.55-28.20L265.55-28.20Q266.27-28.50 267.03-28.35Q267.79-28.20 268.34-27.64L268.34-27.64L286.89-8.28L286.89-28.01L291.97-28.01Z M320.90-16.56L320.90-11.45L304.86-11.45L304.86-16.56L320.90-16.56ZM323.18-5.08L323.18 0L304.86 0Q303.81 0 302.56-0.37Q301.31-0.74 300.24-1.59Q299.18-2.44 298.47-3.80Q297.75-5.16 297.75-7.13L297.75-7.13L297.75-25.45Q297.75-25.98 297.95-26.45Q298.14-26.91 298.49-27.27Q298.83-27.62 299.30-27.81Q299.77-28.01 300.31-28.01L300.31-28.01L323.18-28.01L323.18-22.93L302.83-22.93L302.83-7.13Q302.83-6.13 303.36-5.61Q303.89-5.08 304.90-5.08L304.90-5.08L323.18-5.08Z M354.90-8.24L354.90-8.24Q354.90-6.74 354.52-5.54Q354.14-4.34 353.52-3.42Q352.89-2.50 352.05-1.86Q351.21-1.21 350.31-0.80Q349.41-0.39 348.49-0.20Q347.56 0 346.74 0L346.74 0L327.15 0L327.15-5.08L346.74-5.08Q348.20-5.08 349.01-5.94Q349.82-6.80 349.82-8.24L349.82-8.24Q349.82-8.95 349.61-9.53Q349.39-10.12 348.99-10.55Q348.59-10.98 348.02-11.21Q347.44-11.45 346.74-11.45L346.74-11.45L335.06-11.45Q333.83-11.45 332.40-11.88Q330.98-12.32 329.76-13.30Q328.54-14.28 327.72-15.86Q326.91-17.44 326.91-19.73L326.91-19.73Q326.91-22.01 327.72-23.58Q328.54-25.16 329.76-26.14Q330.98-27.13 332.40-27.57Q333.83-28.01 335.06-28.01L335.06-28.01L352.34-28.01L352.34-22.93L335.06-22.93Q333.61-22.93 332.80-22.05Q331.99-21.17 331.99-19.73L331.99-19.73Q331.99-18.26 332.80-17.41Q333.61-16.56 335.06-16.56L335.06-16.56L346.74-16.56L346.78-16.56Q347.60-16.54 348.52-16.34Q349.43-16.13 350.34-15.70Q351.25-15.27 352.07-14.62Q352.89-13.96 353.53-13.05Q354.16-12.13 354.53-10.94Q354.90-9.75 354.90-8.24Z M386.04-8.24L386.04-8.24Q386.04-6.74 385.65-5.54Q385.27-4.34 384.65-3.42Q384.02-2.50 383.18-1.86Q382.34-1.21 381.45-0.80Q380.55-0.39 379.62-0.20Q378.69 0 377.87 0L377.87 0L358.28 0L358.28-5.08L377.87-5.08Q379.34-5.08 380.15-5.94Q380.96-6.80 380.96-8.24L380.96-8.24Q380.96-8.95 380.74-9.53Q380.53-10.12 380.13-10.55Q379.73-10.98 379.15-11.21Q378.57-11.45 377.87-11.45L377.87-11.45L366.19-11.45Q364.96-11.45 363.54-11.88Q362.11-12.32 360.89-13.30Q359.67-14.28 358.86-15.86Q358.05-17.44 358.05-19.73L358.05-19.73Q358.05-22.01 358.86-23.58Q359.67-25.16 360.89-26.14Q362.11-27.13 363.54-27.57Q364.96-28.01 366.19-28.01L366.19-28.01L383.48-28.01L383.48-22.93L366.19-22.93Q364.75-22.93 363.94-22.05Q363.13-21.17 363.13-19.73L363.13-19.73Q363.13-18.26 363.94-17.41Q364.75-16.56 366.19-16.56L366.19-16.56L377.87-16.56L377.91-16.56Q378.73-16.54 379.65-16.34Q380.57-16.13 381.47-15.70Q382.38-15.27 383.20-14.62Q384.02-13.96 384.66-13.05Q385.29-12.13 385.66-10.94Q386.04-9.75 386.04-8.24Z"/></g>
</svg>
</g><g opacity="1" transform="rotate(0 101.2717 73.8342)">
<svg width="186.4739" height="151.404" x="101.2717" y="73.8342" version="1.1" preserveAspectRatio="none" viewBox="20.099998474121094 35.00000762939453 159.86569213867188 129.79998779296875">
  <g transform="matrix(1 0 0 1 0 0)" ><g><path d="M179.9 108.3l-31.6-55.1-.1-.1s0-.1-.1-.1c-.1-.1-.2-.2-.3-.2-14.2-6.8-31.2-17.5-31.2-17.5-.1-.1-.8-.3-.8-.3-.1 0-.1 0-.2.1h-.1c-.1 0-.2.1-.3.2l-.1.1c-.1.1-.1.1-.1.2 0 0 0 .1-.1.1v.1L98.8 87.6 21 90.1h-.2c-.1 0-.3.1-.4.2-.1.1-.2.2-.2.3-.1.1-.1.3-.1.4v.4c0 .1.1.2.1.2l31.6 55.1.1.1.3.3 31.4 17.7h63.7c.4 0 .7-.2.9-.5l31.6-55.1c.2-.2.2-.6.1-.9zm-33.8-54l-6.5 21-21.2-36.6c7.1 4.5 21.8 12.7 27.7 15.6zm-29.9-15.7L138.7 78l-8.3 26.8-29.6-16.7 15.4-49.5zM99.3 89.7l28 15.7-74.5 2.4-28-15.7 74.5-2.4zm-75.5 4.2l27.9 15.7 20.4 35.6H53.2L23.8 93.9zm32.8 53.4h16.1c.2 0 .4-.1.5-.2l8.1 14.1-24.7-13.9zm90.1 15.6h-62l-30.5-53.1 76.8-2.5h.4c.2-.1.3-.2.4-.3 0 0 0-.1.1-.1v-.2s0-.1.1-.1l15.6-50.3 30.1 52.5-31 54.1z" data-color="1" class="icon1"></path></g></g>
</svg>
</g></svg></svg>